<svg width="30" height="30" viewBox="0 0 30 30" fill="none" xmlns="http://www.w3.org/2000/svg">
<path d="M29.916 8.81505C29.844 7.21777 29.586 6.1249 29.2199 5.17014C28.8358 4.18535 28.3257 3.34468 27.4916 2.51601C26.6574 1.68735 25.8232 1.16493 24.839 0.786629C23.8848 0.414332 22.7926 0.16213 21.1963 0.0900721C19.594 0.0180144 19.0839 0 15.0151 0C10.9403 0 10.4301 0.0180144 8.83383 0.0900721C7.23751 0.16213 6.14529 0.420336 5.1911 0.786629C4.2009 1.17094 3.36073 1.68135 2.53257 2.51601C1.7044 3.35068 1.1823 4.18535 0.804224 5.17014C0.43815 6.1249 0.180099 7.21777 0.108084 8.81505C0.03607 10.4183 0.0180664 10.9287 0.0180664 15C0.0180664 19.0773 0.03607 19.5877 0.108084 21.1849C0.180099 22.7822 0.43815 23.8751 0.804224 24.8299C1.1883 25.8147 1.6984 26.6553 2.53257 27.484C3.36073 28.3187 4.2009 28.8351 5.1851 29.2134C6.13929 29.5857 7.23151 29.8379 8.82783 29.9099C10.4301 29.982 10.9403 30 15.0091 30C19.0839 30 19.594 29.982 21.1903 29.9099C22.7866 29.8379 23.8788 29.5797 24.833 29.2134C25.8172 28.8291 26.6574 28.3187 27.4856 27.484C28.3137 26.6493 28.8358 25.8147 29.2139 24.8299C29.586 23.8751 29.838 22.7822 29.91 21.1849C29.9821 19.5817 30.0001 19.0713 30.0001 15C30.0001 10.9287 29.9881 10.4123 29.916 8.81505ZM27.2215 21.0649C27.1555 22.53 26.9094 23.3287 26.7054 23.8511C26.4354 24.5476 26.1053 25.052 25.5772 25.5805C25.0491 26.1089 24.551 26.4271 23.8488 26.7094C23.3207 26.9135 22.5226 27.1597 21.0643 27.2258C19.486 27.2978 19.0119 27.3159 15.0031 27.3159C10.9943 27.3159 10.5202 27.2978 8.94185 27.2258C7.47756 27.1597 6.6794 26.9135 6.15729 26.7094C5.46115 26.4392 4.95705 26.1089 4.42895 25.5805C3.90084 25.052 3.58278 24.5536 3.30072 23.8511C3.09668 23.3227 2.85063 22.524 2.78462 21.0649C2.71261 19.4856 2.6946 19.0112 2.6946 15C2.6946 10.9888 2.71261 10.5144 2.78462 8.93515C2.85063 7.46998 3.09668 6.67134 3.30072 6.14892C3.57078 5.45236 3.90084 4.94796 4.42895 4.41954C4.95705 3.89111 5.45515 3.57286 6.15729 3.29063C6.6854 3.08647 7.48356 2.84027 8.94185 2.77422C10.5202 2.70216 10.9943 2.68415 15.0031 2.68415C19.0119 2.68415 19.486 2.70216 21.0643 2.77422C22.5286 2.84027 23.3267 3.08647 23.8488 3.29063C24.545 3.56085 25.0491 3.89111 25.5772 4.41954C26.1053 4.94796 26.4233 5.44636 26.7054 6.14892C26.9094 6.67734 27.1555 7.47598 27.2215 8.93515C27.2935 10.5144 27.3115 10.9888 27.3115 15C27.3115 19.0112 27.2875 19.4856 27.2215 21.0649Z" fill="url(#paint0_linear_1_1473)"/>
<path d="M15.0031 7.28986C10.7423 7.28986 7.29761 10.7426 7.29761 15C7.29761 19.2634 10.7483 22.7102 15.0031 22.7102C19.258 22.7102 22.7087 19.2514 22.7087 15C22.7087 10.7366 19.264 7.28986 15.0031 7.28986ZM15.0031 20.002C12.2426 20.002 10.0041 17.7622 10.0041 15C10.0041 12.2378 12.2426 9.99802 15.0031 9.99802C17.7637 9.99802 20.0021 12.2378 20.0021 15C20.0021 17.7622 17.7637 20.002 15.0031 20.002Z" fill="url(#paint1_linear_1_1473)"/>
<path d="M23.0087 8.79105C24.003 8.79105 24.8091 7.98452 24.8091 6.98961C24.8091 5.9947 24.003 5.18817 23.0087 5.18817C22.0144 5.18817 21.2084 5.9947 21.2084 6.98961C21.2084 7.98452 22.0144 8.79105 23.0087 8.79105Z" fill="#BC30A0"/>
<path d="M0 15C0 19.0773 0.0180036 19.5877 0.090018 21.1849C0.162032 22.7822 0.420084 23.8751 0.786157 24.8299C1.17023 25.8147 1.68034 26.6553 2.5145 27.484C3.34267 28.3126 4.18284 28.8351 5.16703 29.2134C6.12122 29.5857 7.21344 29.8379 8.80976 29.9099C10.4121 29.982 10.9222 30 14.991 30C19.0658 30 19.5759 29.982 21.1722 29.9099C22.7686 29.8379 23.8608 29.5797 24.815 29.2134C25.7992 28.8291 26.6393 28.3187 27.4675 27.484C28.2957 26.6553 28.8178 25.8147 29.1958 24.8299C29.5679 23.8751 29.82 22.7822 29.892 21.1849C29.964 19.5817 29.982 19.0713 29.982 15C29.982 10.9227 29.964 10.4123 29.892 8.81505C29.82 7.21777 29.5619 6.1249 29.1958 5.17014C28.8118 4.18535 28.3017 3.34468 27.4675 2.51601C26.6453 1.68135 25.8052 1.16493 24.821 0.786629C23.8668 0.414332 22.7746 0.16213 21.1782 0.0900721C19.5759 0.0180144 19.0658 0 14.997 0C10.9222 0 10.4121 0.0180144 8.81576 0.0900721C7.21944 0.16213 6.12723 0.420336 5.17303 0.786629C4.18884 1.17094 3.34867 1.68135 2.5205 2.51601C1.69234 3.35068 1.17023 4.18535 0.792158 5.17014C0.420084 6.1249 0.162032 7.21777 0.090018 8.81505C0.0180036 10.4123 0 10.9227 0 15ZM2.70654 15C2.70654 10.9948 2.72454 10.5144 2.79656 8.93515C2.86257 7.46998 3.10862 6.67134 3.31266 6.14892C3.58272 5.45236 3.91278 4.94796 4.44089 4.41954C4.96899 3.89111 5.46709 3.57286 6.16923 3.29063C6.69734 3.08647 7.4955 2.84027 8.95379 2.77422C10.5321 2.70216 11.0062 2.68415 15.015 2.68415C19.0238 2.68415 19.4979 2.70216 21.0762 2.77422C22.5405 2.84027 23.3387 3.08647 23.8608 3.29063C24.5569 3.56085 25.061 3.89111 25.5891 4.41954C26.1172 4.94796 26.4353 5.44636 26.7173 6.14892C26.9214 6.67734 27.1674 7.47598 27.2334 8.93515C27.3055 10.5144 27.3235 10.9888 27.3235 15C27.3235 19.0112 27.3055 19.4856 27.2334 21.0649C27.1674 22.53 26.9214 23.3287 26.7173 23.8511C26.4473 24.5476 26.1172 25.052 25.5891 25.5805C25.061 26.1089 24.5629 26.4271 23.8608 26.7094C23.3327 26.9135 22.5345 27.1597 21.0762 27.2258C19.4979 27.2978 19.0238 27.3159 15.015 27.3159C11.0062 27.3159 10.5321 27.2978 8.95379 27.2258C7.4895 27.1597 6.69134 26.9135 6.16923 26.7094C5.47309 26.4392 4.96899 26.1089 4.44089 25.5805C3.91278 25.052 3.59472 24.5536 3.31266 23.8511C3.10862 23.3227 2.86257 22.524 2.79656 21.0649C2.71854 19.4856 2.70654 19.0052 2.70654 15Z" fill="url(#paint2_linear_1_1473)"/>
<defs>
<linearGradient id="paint0_linear_1_1473" x1="25.3694" y1="2.294" x2="3.66636" y2="28.8845" gradientUnits="userSpaceOnUse">
<stop stop-color="#AE3DAE"/>
<stop offset="0.0468721" stop-color="#B23BA6"/>
<stop offset="0.1216" stop-color="#BD368E"/>
<stop offset="0.2148" stop-color="#CE2E69"/>
<stop offset="0.3216" stop-color="#E62335"/>
<stop offset="0.418" stop-color="#FF1800"/>
</linearGradient>
<linearGradient id="paint1_linear_1_1473" x1="18.678" y1="8.8161" x2="10.7938" y2="22.0643" gradientUnits="userSpaceOnUse">
<stop stop-color="#E12F6A"/>
<stop offset="0.1705" stop-color="#EA3751"/>
<stop offset="0.3563" stop-color="#F13D3E"/>
<stop offset="0.5467" stop-color="#F64133"/>
<stop offset="0.7469" stop-color="#F7422F"/>
<stop offset="0.7946" stop-color="#F74C2F"/>
<stop offset="0.8743" stop-color="#F7652F"/>
<stop offset="0.9757" stop-color="#F78F2E"/>
<stop offset="1" stop-color="#F79A2E"/>
</linearGradient>
<linearGradient id="paint2_linear_1_1473" x1="21.7976" y1="-1.23504" x2="8.51736" y2="30.4204" gradientUnits="userSpaceOnUse">
<stop offset="0.2341" stop-color="#9E35A5" stop-opacity="0"/>
<stop offset="0.4512" stop-color="#D42F7F" stop-opacity="0.5"/>
<stop offset="0.7524" stop-color="#F7772E"/>
<stop offset="0.9624" stop-color="#FEF780"/>
</linearGradient>
</defs>
</svg>
