<svg width="99" height="114" viewBox="0 0 99 114" fill="none" xmlns="http://www.w3.org/2000/svg">
<path d="M5.88295 82.0318C7.10306 82.2171 9.67127 81.4781 9.8755 81.4197C10.2896 82.9011 10.8004 84.3532 11.4047 85.7666C11.7543 86.5946 12.1312 87.4145 12.5219 88.2327C12.2873 87.8876 12.0759 87.5776 12.043 87.539C11.0939 86.4159 8.6027 84.8158 7.09278 85.4523C6.84451 85.5652 6.62259 85.7295 6.44149 85.9346C6.2604 86.1396 6.12418 86.3809 6.04171 86.6426C5.95924 86.9043 5.93237 87.1805 5.96284 87.4534C5.99331 87.7262 6.08046 87.9895 6.21859 88.2262C6.77015 89.247 8.10052 89.7596 9.18192 89.9241C10.2633 90.0887 12.4808 89.5162 13.0611 89.345C13.2119 89.6578 13.358 89.9711 13.5134 90.2834C14.2495 91.7785 14.9896 93.2685 15.6679 94.7518C15.9095 95.2712 16.1281 95.7934 16.3286 96.3226C16.1218 96.012 15.9449 95.7545 15.9172 95.7201C14.9635 94.5975 12.4723 92.9974 10.967 93.6333C10.7197 93.7472 10.4988 93.9122 10.3187 94.1175C10.1385 94.3228 10.0031 94.5639 9.92115 94.8253C9.8392 95.0866 9.81254 95.3624 9.8429 95.6348C9.87326 95.9072 9.95997 96.1701 10.0974 96.4066C10.6449 97.4327 11.9753 97.9453 13.0561 98.1052C14.1369 98.2651 16.1404 97.7474 16.8311 97.5578C17.038 98.1004 17.2496 98.6425 17.427 99.1745C17.5424 99.5438 17.6786 99.8915 17.7714 100.268C17.8642 100.645 17.9692 101.006 18.0696 101.368C18.2304 102.072 18.408 102.799 18.5492 103.496C18.6522 103.957 18.7414 104.419 18.8305 104.882C18.5975 104.357 18.1223 103.345 18.0699 103.262C17.298 102.012 15.0776 100.052 13.5006 100.446C13.2387 100.52 12.9951 100.648 12.7858 100.823C12.5765 100.998 12.4061 101.216 12.2857 101.462C12.1654 101.708 12.0979 101.976 12.0875 102.25C12.0771 102.524 12.1242 102.797 12.2255 103.052C12.6127 104.15 13.8542 104.858 14.8947 105.189C16.0422 105.549 18.5921 105.238 18.9108 105.194C19.0559 105.962 19.1941 106.712 19.3133 107.421C19.643 109.36 19.8676 111.051 20.0252 112.386L21.1172 112.251C20.9248 110.901 20.6616 109.201 20.2874 107.244C20.1405 106.462 19.9644 105.632 19.7807 104.778C20.5411 104.466 21.2834 104.11 22.0039 103.713C22.8344 104.633 24.9758 105.713 25.2559 105.853C24.9588 106.577 24.6635 107.276 24.377 107.932C23.6754 109.538 23.0148 110.941 22.452 112.067L23.7058 111.911C24.1765 110.878 24.7106 109.671 25.2694 108.318C25.57 107.585 25.8823 106.794 26.1923 105.984C26.5009 106.05 29.017 106.581 30.1919 106.318C31.2575 106.082 32.5511 105.481 33.0328 104.423C33.1561 104.178 33.2266 103.909 33.2397 103.634C33.2528 103.36 33.2081 103.085 33.1087 102.829C33.0092 102.574 32.8573 102.342 32.6627 102.149C32.4682 101.956 32.2354 101.808 31.9798 101.712C30.4303 101.174 28.0529 102.941 27.1777 104.124C27.1249 104.192 26.6518 105.013 26.3581 105.532L26.735 104.539C26.9858 103.859 27.2169 103.172 27.4654 102.436C27.578 102.075 27.6903 101.711 27.8021 101.343C27.918 100.983 27.9964 100.585 28.1002 100.203C28.3156 99.31 28.4911 98.3981 28.6459 97.4698C29.2362 97.6904 31.3472 98.4426 32.4419 98.3688C33.5365 98.295 34.8979 97.9041 35.554 96.928C35.7108 96.7039 35.8191 96.4491 35.8721 96.1801C35.925 95.9111 35.9214 95.6339 35.8614 95.3664C35.8014 95.0989 35.6864 94.8471 35.5238 94.6272C35.3613 94.4074 35.1547 94.2243 34.9176 94.09C33.4623 93.323 30.851 94.7113 29.8073 95.7447C29.7447 95.8093 29.0797 96.6349 28.7225 97.0958C28.8099 96.5405 28.9019 95.9846 28.9876 95.4152C29.2018 93.7789 29.3612 92.1162 29.5309 90.4616C29.5818 89.9534 29.6373 89.4447 29.6933 88.9406C29.9053 89.0233 32.3922 89.9705 33.6159 89.8759C34.7059 89.8027 36.076 89.406 36.7275 88.4305C36.8849 88.2071 36.9939 87.9526 37.0472 87.6839C37.1006 87.4151 37.0971 87.138 37.0371 86.8707C36.9771 86.6033 36.8619 86.3518 36.699 86.1323C36.5361 85.9129 36.3291 85.7306 36.0916 85.5972C34.641 84.8296 32.0244 86.2138 30.9854 87.2467C30.906 87.3275 29.9516 88.5156 29.7214 88.8235C29.8442 87.7098 29.9768 86.5996 30.1493 85.5082C30.3775 84.0375 30.7011 82.5835 31.1178 81.1554C31.2166 81.1953 33.804 82.1963 35.0617 82.1118C36.1523 82.0432 37.5224 81.6465 38.1739 80.671C38.3307 80.4469 38.439 80.1921 38.492 79.9231C38.5449 79.6541 38.5413 79.3769 38.4813 79.1094C38.4213 78.8419 38.3063 78.5901 38.1437 78.3703C37.9811 78.1504 37.7746 77.9674 37.5374 77.833C36.0868 77.0655 33.4703 78.4497 32.4266 79.4831C32.36 79.5529 31.634 80.4571 31.2982 80.9011L31.2128 80.8548C31.6699 79.4289 32.2514 78.0466 32.9504 76.7242C33.3308 75.9906 33.718 75.3129 34.1086 74.6633C34.574 74.8993 36.7034 75.957 37.8417 76.0104C38.98 76.0637 40.3352 75.8156 41.0762 74.9191C41.2563 74.7137 41.3917 74.4724 41.4736 74.2109C41.5555 73.9495 41.5821 73.6736 41.5516 73.4011C41.5211 73.1287 41.4342 72.8657 41.2966 72.6292C41.159 72.3927 40.9737 72.1879 40.7527 72.0282C39.392 71.1121 36.6403 72.1958 35.4922 73.1049C35.4326 73.1548 34.8502 73.7335 34.4364 74.154C34.6221 73.8659 34.8332 73.5557 34.9929 73.285C35.6844 72.2525 36.3815 71.3424 37.0077 70.5452C37.3661 70.0937 37.6977 69.6929 38.0096 69.3228C38.5861 69.3131 40.9041 69.2584 41.917 68.7828C42.9299 68.3071 44.0425 67.4546 44.2886 66.3114C44.3552 66.0458 44.3656 65.7689 44.319 65.4989C44.2725 65.2289 44.17 64.9718 44.0182 64.7444C43.8665 64.517 43.6689 64.3244 43.4384 64.1791C43.2079 64.0339 42.9496 63.9393 42.6804 63.9014C41.0561 63.714 39.1072 65.9532 38.5051 67.2966C38.4534 67.4119 37.85 69.3236 37.8783 69.3249L37.9107 69.3209C37.6012 69.6716 37.276 70.048 36.9235 70.4704C36.2822 71.26 35.5638 72.149 34.8526 73.1745C34.0688 74.2706 33.35 75.4125 32.6998 76.5942C31.9626 77.912 31.3449 79.2942 30.854 80.724C30.8553 80.7412 30.8574 80.7583 30.8603 80.7753C30.8729 80.3003 30.8575 78.9385 30.8445 78.8312C30.6668 77.3712 29.4623 74.6508 27.8563 74.3427C27.5875 74.2994 27.3128 74.3134 27.0498 74.3838C26.7867 74.4543 26.5413 74.5797 26.3294 74.7519C26.1175 74.924 25.9438 75.1391 25.8196 75.3833C25.6953 75.6274 25.6233 75.8951 25.6082 76.1691C25.5096 77.3271 26.3603 78.4909 27.1502 79.2313C28.0641 80.0652 30.6102 80.882 30.8102 80.9425C30.347 82.4108 29.9801 83.9082 29.7118 85.425C29.5514 86.3066 29.4157 87.1993 29.29 88.0956C29.2863 87.6793 29.2831 87.3057 29.2769 87.2544C29.0987 85.7896 27.8942 83.0692 26.2835 82.7618C26.015 82.7184 25.7405 82.7324 25.4778 82.8028C25.2151 82.8733 24.97 82.9987 24.7584 83.1709C24.5469 83.343 24.3736 83.5581 24.2498 83.8022C24.1261 84.0463 24.0546 84.3138 24.04 84.5876C23.9414 85.7456 24.769 86.9122 25.582 87.6498C26.3949 88.3873 28.5574 89.1379 29.1345 89.3269C29.0875 89.6737 29.0399 90.0157 28.9974 90.3619C28.7948 92.0158 28.5967 93.669 28.3519 95.2855C28.2662 95.8548 28.1603 96.4125 28.059 96.9695C28.0564 96.6005 28.0507 96.284 28.0451 96.2373C27.8669 94.7726 26.6629 92.0568 25.0522 91.7494C24.784 91.7052 24.5096 91.7184 24.2468 91.7883C23.9839 91.8581 23.7387 91.983 23.527 92.1549C23.3153 92.3267 23.1418 92.5416 23.018 92.7855C22.8941 93.0294 22.8227 93.2969 22.8082 93.5705C22.7102 94.7332 23.5609 95.897 24.3507 96.6374C25.1406 97.3778 27.1199 98.0516 27.8004 98.2799C27.6766 98.8445 27.5539 99.4184 27.4087 99.9619C27.3032 100.33 27.2254 100.695 27.0962 101.061C26.967 101.428 26.8604 101.786 26.7584 102.145C26.5077 102.824 26.2551 103.528 25.9969 104.185C25.8178 104.643 25.6358 105.077 25.4637 105.515C25.5546 104.95 25.7289 103.834 25.7175 103.741C25.7091 102.444 25.3682 101.172 24.728 100.047C24.734 99.9025 24.7258 99.7576 24.7035 99.6146C24.6713 99.3424 24.5826 99.0802 24.443 98.8449C24.3035 98.6097 24.1164 98.4067 23.8938 98.2493C23.6713 98.0918 23.4183 97.9834 23.1514 97.9312C22.8845 97.8789 22.6097 97.884 22.3449 97.946C20.7609 98.3597 19.7439 101.156 19.6602 102.629C19.6704 102.713 19.7058 103.661 19.7461 104.262C19.6705 103.911 19.5967 103.575 19.5154 103.216C19.3499 102.512 19.1706 101.809 18.9757 101.057C18.8707 100.696 18.7606 100.331 18.655 99.9649C18.5495 99.5991 18.4 99.2199 18.2794 98.8465C17.9675 97.9808 17.6 97.1218 17.2371 96.2623C17.8532 96.1151 20.0226 95.5722 20.8943 94.901C21.766 94.2297 22.6907 93.1447 22.6898 91.98C22.6983 91.7058 22.6494 91.4328 22.5463 91.1789C22.4433 90.9249 22.2883 90.6957 22.0916 90.5061C21.8949 90.3165 21.6608 90.1708 21.4046 90.0784C21.1483 89.986 20.8757 89.949 20.6043 89.9699C18.9764 90.1381 17.551 92.7434 17.2459 94.1731C17.2289 94.2652 17.123 95.3247 17.0812 95.9076C16.8494 95.3917 16.6222 94.8753 16.3719 94.3617C15.6519 92.8835 14.8805 91.4069 14.1138 89.9298L13.4179 88.5717C13.6399 88.5442 16.2327 87.93 17.2122 87.1791C18.0705 86.5142 19.0039 85.4234 19.0031 84.2587C19.0116 83.9849 18.9628 83.7123 18.8601 83.4586C18.7573 83.205 18.6028 82.9759 18.4066 82.7863C18.2104 82.5968 17.9769 82.4509 17.7212 82.3581C17.4654 82.2654 17.1932 82.2279 16.9222 82.2481C15.2896 82.4168 13.8642 85.0221 13.5592 86.4519C13.5393 86.5585 13.3918 88.0872 13.373 88.4731C12.8665 87.4751 12.3692 86.4759 11.9228 85.4705C11.3066 84.1185 10.7796 82.7268 10.3453 81.3048C10.4471 81.2922 13.1566 80.673 14.1581 79.9099C15.0164 79.2451 15.9539 78.149 15.9484 76.9849C15.9576 76.7108 15.9094 76.4379 15.8069 76.1839C15.7044 75.9299 15.5499 75.7005 15.3536 75.5108C15.1572 75.3211 14.9234 75.1752 14.6673 75.0827C14.4112 74.9903 14.1387 74.9533 13.8675 74.9742C12.2396 75.1424 10.8147 77.7523 10.5091 79.1775C10.4881 79.2748 10.3756 80.4345 10.3396 80.9882L10.2425 81.0002C9.84358 79.5549 9.57259 78.0768 9.43268 76.5833C9.33337 75.767 9.30742 74.9747 9.28951 74.2099C9.8077 74.1458 12.1627 73.8545 13.1424 73.2599C14.122 72.6652 15.114 71.7092 15.241 70.5524C15.2791 70.2808 15.2602 70.0042 15.1854 69.7405C15.1106 69.4768 14.9815 69.2319 14.8067 69.0217C14.6319 68.8116 14.4151 68.6409 14.1706 68.5207C13.926 68.4005 13.6591 68.3336 13.3872 68.3242C11.751 68.3088 10.0514 70.7444 9.59256 72.1458C9.56869 72.2198 9.39861 73.0221 9.30015 73.6025C9.29516 73.2527 9.28444 72.8942 9.28636 72.5625C9.29441 71.3162 9.38196 70.1832 9.46409 69.1598C9.51628 68.5851 9.57067 68.067 9.63421 67.5857C10.1062 67.2574 12.0097 65.9188 12.6022 64.9601C13.1947 64.0014 13.6476 62.667 13.2275 61.5683C13.1382 61.3089 12.9955 61.0715 12.8089 60.8715C12.6223 60.6715 12.3959 60.5135 12.1445 60.4078C11.8932 60.3021 11.6225 60.2511 11.3502 60.2582C11.078 60.2652 10.8103 60.3302 10.5646 60.4488C9.1059 61.1974 8.70887 64.1489 8.94203 65.6021C8.95792 65.7328 9.49759 67.6594 9.52365 67.642L9.55604 67.638C9.4925 68.1193 9.42434 68.6013 9.36411 69.1485C9.25715 70.1608 9.1568 71.3048 9.1123 72.5603C9.05924 73.9102 9.08416 75.262 9.18691 76.6089C9.29396 78.1179 9.53572 79.6141 9.90925 81.0793C9.90953 81.0966 9.91162 81.1138 9.9155 81.1306C9.65914 80.722 8.90775 79.6028 8.84145 79.521C7.88827 78.4031 5.39708 76.803 3.89179 77.439C3.64408 77.5517 3.42271 77.7158 3.24212 77.9206C3.06153 78.1254 2.92575 78.3662 2.84366 78.6274C2.76157 78.8887 2.73498 79.1644 2.76565 79.4366C2.79632 79.7089 2.88356 79.9716 3.02166 80.2076C3.46834 81.3313 4.79871 81.8439 5.88295 82.0318Z" fill="#263238"/>
<path opacity="0.3" d="M6.54811 81.1736C7.76822 81.3589 10.3364 80.6199 10.5407 80.5615C10.9548 82.0429 11.4656 83.495 12.0698 84.9084C12.4195 85.7364 12.7963 86.5563 13.187 87.3744C12.9525 87.0294 12.741 86.7194 12.7082 86.6808C11.7591 85.5576 9.26786 83.9576 7.75794 84.5941C7.50967 84.707 7.28775 84.8713 7.10665 85.0764C6.92556 85.2814 6.78935 85.5227 6.70688 85.7844C6.62441 86.046 6.59753 86.3223 6.628 86.5952C6.65847 86.868 6.74562 87.1313 6.88375 87.368C7.43531 88.3888 8.76568 88.9014 9.84708 89.0659C10.9285 89.2305 13.146 88.658 13.7263 88.4868C13.877 88.7996 14.0232 89.1129 14.1786 89.4252C14.9146 90.9203 15.6548 92.4103 16.3331 93.8936C16.5747 94.413 16.7932 94.9352 16.9938 95.4644C16.7869 95.1538 16.61 94.8963 16.5824 94.8619C15.6286 93.7393 13.1374 92.1392 11.6321 92.7751C11.3848 92.889 11.164 93.0539 10.9838 93.2593C10.8037 93.4646 10.6683 93.7057 10.5863 93.967C10.5044 94.2284 10.4777 94.5042 10.5081 94.7766C10.5384 95.049 10.6251 95.3119 10.7626 95.5484C11.3101 96.5745 12.6404 97.0871 13.7213 97.247C14.8021 97.4069 16.8055 96.8892 17.4963 96.6996C17.7032 97.2422 17.9148 97.7842 18.0922 98.3163C18.2076 98.6855 18.3438 99.0333 18.4366 99.4101C18.5294 99.7869 18.6344 100.148 18.7347 100.51C18.8956 101.214 19.0732 101.94 19.2144 102.638C19.3174 103.099 19.4065 103.561 19.4957 104.023C19.2627 103.498 18.7875 102.487 18.735 102.404C17.9631 101.154 15.7428 99.194 14.1658 99.5879C13.9038 99.6616 13.6603 99.7901 13.4509 99.9651C13.2416 100.14 13.0712 100.358 12.9509 100.604C12.8306 100.849 12.763 101.118 12.7527 101.392C12.7423 101.666 12.7893 101.939 12.8907 102.193C13.2779 103.291 14.5194 104 15.5599 104.33C16.7073 104.69 19.2572 104.38 19.5759 104.336C19.721 105.104 19.8592 105.854 19.9784 106.563C20.3082 108.502 20.5327 110.193 20.6904 111.527L21.7823 111.392C21.59 110.043 21.3268 108.343 20.9525 106.386C20.8057 105.604 20.6295 104.773 20.4459 103.92C21.2063 103.607 21.9485 103.252 22.6691 102.855C23.4996 103.775 25.641 104.854 25.9211 104.995C25.624 105.718 25.3287 106.418 25.0421 107.073C24.3406 108.68 23.68 110.083 23.1172 111.208L24.371 111.053C24.8417 110.02 25.3758 108.812 25.9345 107.46C26.2351 106.727 26.5474 105.936 26.8574 105.125C27.166 105.191 29.6822 105.723 30.8571 105.459C31.9226 105.223 33.2163 104.623 33.698 103.564C33.8213 103.319 33.8918 103.051 33.9048 102.776C33.9179 102.501 33.8733 102.227 33.7738 101.971C33.6744 101.715 33.5224 101.483 33.3279 101.291C33.1333 101.098 32.9006 100.949 32.6449 100.854C31.0955 100.316 28.718 102.083 27.8429 103.266C27.7901 103.334 27.317 104.155 27.0233 104.674L27.4002 103.68C27.6509 103.001 27.882 102.314 28.1306 101.578C28.2432 101.217 28.3554 100.852 28.4673 100.485C28.5832 100.125 28.6615 99.727 28.7653 99.3449C28.9807 98.4517 29.1563 97.5399 29.311 96.6116C29.9014 96.8322 32.0124 97.5844 33.107 97.5106C34.2017 97.4368 35.563 97.0459 36.2192 96.0698C36.376 95.8457 36.4843 95.5909 36.5372 95.3219C36.5902 95.0529 36.5866 94.7757 36.5266 94.5082C36.4666 94.2407 36.3516 93.9889 36.189 93.769C36.0264 93.5492 35.8199 93.3661 35.5827 93.2318C34.1275 92.4648 31.5162 93.8531 30.4725 94.8865C30.4099 94.9511 29.7448 95.7767 29.3876 96.2376C29.475 95.6822 29.5671 95.1263 29.6528 94.557C29.867 92.9207 30.0263 91.258 30.196 89.6034C30.2469 89.0952 30.3024 88.5865 30.3585 88.0824C30.5705 88.165 33.0574 89.1122 34.281 89.0177C35.3711 88.9445 36.7411 88.5478 37.3926 87.5723C37.5501 87.3488 37.659 87.0944 37.7124 86.8257C37.7657 86.5569 37.7623 86.2798 37.7023 86.0125C37.6423 85.7451 37.5271 85.4935 37.3642 85.2741C37.2012 85.0547 36.9943 84.8723 36.7568 84.739C35.3061 83.9714 32.6896 85.3556 31.6506 86.3885C31.5712 86.4693 30.6168 87.6574 30.3865 87.9653C30.5093 86.8516 30.6419 85.7414 30.8144 84.65C31.0427 83.1793 31.3662 81.7252 31.783 80.2972C31.8818 80.337 34.4692 81.3381 35.7269 81.2536C36.8175 81.185 38.1875 80.7883 38.8391 79.8128C38.9958 79.5887 39.1042 79.3339 39.1571 79.0649C39.2101 78.7959 39.2064 78.5187 39.1464 78.2512C39.0865 77.9837 38.9715 77.7319 38.8089 77.512C38.6463 77.2922 38.4398 77.1092 38.2026 76.9748C36.752 76.2072 34.1354 77.5915 33.0918 78.6249C33.0251 78.6947 32.2992 79.5989 31.9634 80.0429L31.8779 79.9966C32.335 78.5707 32.9165 77.1884 33.6156 75.8659C33.9959 75.1323 34.3831 74.4547 34.7737 73.8051C35.2392 74.0411 37.3685 75.0988 38.5068 75.1522C39.6452 75.2055 41.0004 74.9574 41.7414 74.0609C41.9215 73.8554 42.0569 73.6142 42.1388 73.3527C42.2207 73.0913 42.2473 72.8154 42.2168 72.5429C42.1863 72.2704 42.0994 72.0075 41.9618 71.771C41.8242 71.5345 41.6388 71.3297 41.4178 71.17C40.0571 70.2539 37.3054 71.3376 36.1574 72.2466C36.0977 72.2966 35.5153 72.8753 35.1016 73.2958C35.2872 73.0077 35.4984 72.6975 35.658 72.4268C36.3496 71.3943 37.0466 70.4842 37.6729 69.687C38.0312 69.2355 38.3629 68.8346 38.6748 68.4646C39.2512 68.4549 41.5693 68.4002 42.5822 67.9246C43.5951 67.4489 44.7077 66.5964 44.9537 65.4532C45.0204 65.1875 45.0308 64.9107 44.9842 64.6406C44.9376 64.3706 44.8351 64.1136 44.6834 63.8862C44.5316 63.6588 44.3341 63.4662 44.1036 63.3209C43.873 63.1757 43.6148 63.081 43.3455 63.0432C41.7213 62.8558 39.7723 65.0949 39.1703 66.4384C39.1185 66.5537 38.5152 68.4654 38.5435 68.4666L38.5759 68.4626C38.2663 68.8134 37.9411 69.1898 37.5886 69.6122C36.9474 70.4018 36.229 71.2908 35.5178 72.3163C34.734 73.4124 34.0151 74.5543 33.3649 75.736C32.6278 77.0538 32.01 78.436 31.5192 79.8658C31.5205 79.883 31.5226 79.9001 31.5254 79.9171C31.5381 79.442 31.5227 78.0803 31.5096 77.973C31.332 76.5129 30.1275 73.7925 28.5214 73.4845C28.2527 73.4412 27.978 73.4552 27.7149 73.5256C27.4519 73.5961 27.2065 73.7215 26.9946 73.8936C26.7826 74.0658 26.6089 74.2809 26.4847 74.525C26.3605 74.7692 26.2885 75.0369 26.2733 75.3109C26.1747 76.4689 27.0255 77.6327 27.8153 78.3731C28.7293 79.207 31.2754 80.0238 31.4753 80.0843C31.0122 81.5526 30.6453 83.05 30.3769 84.5668C30.2165 85.4484 30.0809 86.3411 29.9551 87.2373C29.9515 86.8211 29.9483 86.4475 29.942 86.3962C29.7638 84.9314 28.5593 82.211 26.9487 81.9036C26.6802 81.8602 26.4057 81.8742 26.143 81.9446C25.8802 82.0151 25.6351 82.1405 25.4236 82.3127C25.212 82.4848 25.0387 82.6999 24.915 82.944C24.7912 83.1881 24.7197 83.4556 24.7052 83.7293C24.6066 84.8874 25.4342 86.054 26.2471 86.7915C27.0601 87.5291 29.2225 88.2797 29.7997 88.4687C29.7526 88.8154 29.705 89.1575 29.6626 89.5037C29.4599 91.1575 29.2619 92.8108 29.0171 94.4273C28.9314 94.9966 28.8254 95.5542 28.7242 96.1113C28.7215 95.7423 28.7159 95.4257 28.7102 95.3791C28.532 93.9144 27.3281 91.1986 25.7174 90.8912C25.4492 90.847 25.1747 90.8602 24.9119 90.9301C24.6491 90.9999 24.4039 91.1248 24.1922 91.2966C23.9804 91.4685 23.807 91.6833 23.6831 91.9273C23.5593 92.1712 23.4878 92.4387 23.4734 92.7123C23.3753 93.875 24.2261 95.0388 25.0159 95.7792C25.8057 96.5196 27.785 97.1933 28.4656 97.4217C28.3417 97.9863 28.219 98.5601 28.0738 99.1037C27.9683 99.4718 27.8906 99.8366 27.7614 100.203C27.6322 100.569 27.5256 100.928 27.4236 101.286C27.1728 101.966 26.9203 102.67 26.6621 103.327C26.4829 103.784 26.301 104.219 26.1288 104.657C26.2198 104.092 26.394 102.976 26.3827 102.883C26.3743 101.586 26.0334 100.314 25.3932 99.189C25.3991 99.0443 25.3909 98.8994 25.3687 98.7564C25.3365 98.4842 25.2477 98.222 25.1082 97.9867C24.9687 97.7514 24.7815 97.5485 24.559 97.391C24.3364 97.2336 24.0835 97.1252 23.8166 97.073C23.5497 97.0207 23.2749 97.0258 23.0101 97.0878C21.4261 97.5015 20.4091 100.298 20.3253 101.771C20.3355 101.855 20.371 102.803 20.4112 103.404C20.3357 103.053 20.2619 102.717 20.1806 102.357C20.0151 101.653 19.8357 100.951 19.6409 100.199C19.5359 99.8376 19.4257 99.4724 19.3202 99.1067C19.2146 98.7409 19.0651 98.3617 18.9446 97.9883C18.6326 97.1225 18.2651 96.2636 17.9023 95.4041C18.5184 95.2569 20.6878 94.714 21.5595 94.0427C22.4312 93.3715 23.3558 92.2865 23.355 91.1218C23.3635 90.8475 23.3146 90.5746 23.2115 90.3206C23.1084 90.0667 22.9535 89.8375 22.7568 89.6479C22.5601 89.4583 22.326 89.3126 22.0698 89.2202C21.8135 89.1278 21.5408 89.0908 21.2695 89.1117C19.6415 89.2799 18.2162 91.8851 17.9111 93.3149C17.8941 93.407 17.7882 94.4665 17.7464 95.0494C17.5146 94.5335 17.2874 94.0171 17.037 93.5035C16.3171 92.0253 15.5457 90.5487 14.7789 89.0715L14.083 87.7135C14.3051 87.686 16.8979 87.0718 17.8773 86.3209C18.7357 85.656 19.6691 84.5652 19.6683 83.4005C19.6767 83.1267 19.628 82.8541 19.5253 82.6004C19.4225 82.3468 19.268 82.1177 19.0718 81.9281C18.8756 81.7385 18.6421 81.5926 18.3863 81.4999C18.1306 81.4072 17.8584 81.3697 17.5874 81.3898C15.9548 81.5586 14.5294 84.1639 14.2243 85.5937C14.2044 85.7003 14.0569 87.229 14.0381 87.6148C13.5316 86.6169 13.0344 85.6177 12.588 84.6123C11.9718 83.2602 11.4448 81.8686 11.0104 80.4466C11.1122 80.434 13.8218 79.8148 14.8232 79.0517C15.6816 78.3868 16.619 77.2908 16.6136 76.1267C16.6228 75.8526 16.5746 75.5797 16.4721 75.3257C16.3696 75.0717 16.2151 74.8423 16.0187 74.6526C15.8224 74.4628 15.5885 74.317 15.3325 74.2245C15.0764 74.1321 14.8039 74.0951 14.5327 74.116C12.9047 74.2842 11.4799 76.8941 11.1743 78.3193C11.1532 78.4166 11.0407 79.5763 11.0048 80.13L10.9076 80.142C10.5087 78.6967 10.2377 77.2186 10.0978 75.7251C9.99853 74.9087 9.97258 74.1165 9.95467 73.3516C10.4729 73.2876 12.8279 72.9963 13.8075 72.4017C14.7872 71.807 15.7792 70.851 15.9061 69.6942C15.9443 69.4226 15.9254 69.146 15.8505 68.8823C15.7757 68.6186 15.6467 68.3737 15.4719 68.1635C15.297 67.9534 15.0803 67.7827 14.8357 67.6625C14.5912 67.5423 14.3243 67.4754 14.0524 67.466C12.4162 67.4506 10.7165 69.8862 10.2577 71.2876C10.2338 71.3616 10.0638 72.1639 9.96531 72.7443C9.96032 72.3945 9.9496 72.036 9.95152 71.7043C9.95957 70.458 10.0471 69.325 10.1293 68.3016C10.1814 67.7269 10.2358 67.2088 10.2994 66.7275C10.7713 66.3992 12.6749 65.0606 13.2674 64.1019C13.8599 63.1432 14.3128 61.8087 13.8926 60.7101C13.8033 60.4507 13.6607 60.2133 13.4741 60.0133C13.2874 59.8133 13.061 59.6553 12.8097 59.5496C12.5583 59.4439 12.2877 59.3929 12.0154 59.4C11.7431 59.407 11.4754 59.472 11.2298 59.5905C9.77107 60.3391 9.37403 63.2907 9.60719 64.7439C9.62308 64.8745 10.1628 66.8012 10.1888 66.7838L10.2212 66.7798C10.1577 67.2611 10.0895 67.743 10.0293 68.2903C9.92231 69.3026 9.82196 70.4466 9.77746 71.7021C9.7244 73.052 9.74932 74.4038 9.85207 75.7507C9.95912 77.2597 10.2009 78.7559 10.5744 80.2211C10.5747 80.2384 10.5768 80.2556 10.5807 80.2724C10.3243 79.8638 9.57291 78.7446 9.50661 78.6628C8.55343 77.5449 6.06225 75.9448 4.55695 76.5808C4.30924 76.6935 4.08787 76.8576 3.90728 77.0624C3.72669 77.2672 3.59091 77.508 3.50882 77.7692C3.42673 78.0304 3.40015 78.3062 3.43081 78.5784C3.46148 78.8507 3.54872 79.1134 3.68682 79.3494C4.1335 80.4731 5.46387 80.9857 6.54811 81.1736Z" fill="#263238"/>
<path d="M94.2404 112.873H28.025C26.0252 112.873 24.3704 111.101 24.3378 108.92C24.0395 91.2868 23.1678 33.5606 24.4264 31.0697C25.1675 29.6034 27.2558 28.5554 29.2789 27.545C31.302 26.5345 33.353 25.5053 33.903 24.1424C34.4824 22.4513 34.7032 20.6565 34.551 18.874V18.6296H87.6911V18.874C87.5438 20.6644 87.7725 22.466 88.3624 24.1612C88.9124 25.5241 90.9821 26.558 92.9865 27.5637C94.9909 28.5695 97.0979 29.6222 97.8391 31.0885C99.0976 33.5793 98.226 91.3056 97.9276 108.939C97.8903 111.105 96.2402 112.873 94.2404 112.873ZM35.0404 19.0996C35.1568 20.8712 34.9125 22.6481 34.3226 24.321C33.7026 25.8437 31.6469 26.8729 29.4747 27.9632C27.5215 28.9455 25.4985 29.9559 24.8133 31.2859C23.853 33.1658 24.1607 72.6432 24.776 108.911C24.8086 110.838 26.2536 112.403 27.997 112.403H94.2404C95.9838 112.403 97.4288 110.838 97.4615 108.911C98.0768 72.6338 98.3938 33.1893 97.4242 31.2859C96.7529 29.9559 94.7299 28.9361 92.7628 27.9632C90.5906 26.8729 88.5349 25.8437 87.9149 24.321C87.3344 22.6461 87.0997 20.8693 87.225 19.0996H35.0404Z" fill="#263238"/>
<path d="M87.8543 9.62497H34.7794V1.4992C34.7794 1.10159 34.9361 0.720259 35.2149 0.439104C35.4938 0.15795 35.872 0 36.2664 0H86.3673C86.7617 0 87.1399 0.15795 87.4188 0.439104C87.6977 0.720259 87.8543 1.10159 87.8543 1.4992V9.62497ZM35.2456 9.155H87.3882V1.4992C87.3882 1.22623 87.2806 0.964441 87.0892 0.771423C86.8977 0.578404 86.6381 0.469969 86.3673 0.469969H36.2664C35.9957 0.469969 35.736 0.578404 35.5446 0.771423C35.3531 0.964441 35.2456 1.22623 35.2456 1.4992V9.155Z" fill="#263238"/>
<path d="M89.579 19.0995H33.367C32.9961 19.0995 32.6404 18.9509 32.3782 18.6865C32.1159 18.4221 31.9686 18.0635 31.9686 17.6896V10.5742C31.9686 10.2003 32.1159 9.84167 32.3782 9.57726C32.6404 9.31285 32.9961 9.16431 33.367 9.16431H89.579C89.9499 9.16431 90.3056 9.31285 90.5679 9.57726C90.8301 9.84167 90.9775 10.2003 90.9775 10.5742V17.6801C90.9787 17.8661 90.9434 18.0504 90.8737 18.2226C90.804 18.3947 90.7012 18.5513 90.5712 18.6832C90.4412 18.8151 90.2866 18.9198 90.1164 18.9912C89.9461 19.0627 89.7635 19.0995 89.579 19.0995ZM33.367 9.62488C33.1197 9.62488 32.8826 9.72391 32.7078 9.90018C32.5329 10.0765 32.4347 10.3155 32.4347 10.5648V17.6707C32.4347 17.92 32.5329 18.1591 32.7078 18.3354C32.8826 18.5117 33.1197 18.6107 33.367 18.6107H89.579C89.8263 18.6107 90.0634 18.5117 90.2383 18.3354C90.4131 18.1591 90.5113 17.92 90.5113 17.6707V10.5742C90.5113 10.3249 90.4131 10.0858 90.2383 9.90958C90.0634 9.7333 89.8263 9.63428 89.579 9.63428L33.367 9.62488Z" fill="#263238"/>
<path d="M93.9235 69.9455H93.4573C93.4573 69.9455 93.4573 67.9199 93.4946 64.8651H93.9608C93.9421 67.9199 93.9235 69.9455 93.9235 69.9455Z" fill="#263238"/>
<path d="M93.9747 62.4118H93.5086C93.5599 53.4542 93.6205 38.2131 93.462 36.7468C93.3035 35.2805 90.8935 33.6591 88.3344 31.9578C87.7144 31.5442 87.0805 31.1166 86.4698 30.6795L86.7589 30.2706C87.3835 30.7077 88.0174 31.1307 88.6234 31.5442C91.3737 33.3818 93.751 34.975 93.9374 36.6716C94.0819 38.105 94.0353 51.4568 93.9747 62.4118Z" fill="#263238"/>
<path d="M84.2976 28.8184C82.2653 26.2853 82.2606 22.6478 82.3025 21.6561H49.9337V21.1862H82.8106V21.4399C82.8106 21.4822 82.4843 25.773 84.6752 28.5224L84.2976 28.8184Z" fill="#263238"/>
<path d="M47.1695 21.1862H40.1121V21.6561H47.1695V21.1862Z" fill="#263238"/>
<path d="M89.1344 10.8504L33.5153 17.0709L33.5667 17.538L89.1858 11.3175L89.1344 10.8504Z" fill="#263238"/>
<path d="M88.8932 13.8351L63.941 17.1385L64.0016 17.6038L88.9538 14.3004L88.8932 13.8351Z" fill="#263238"/>
<path d="M35.7024 76.0927L45.0625 98.9238C45.0625 98.9238 58.6692 99.0977 69.8333 93.679C80.9974 88.2602 90.9635 76.7601 92.8514 72.7559C94.7393 68.7518 96.1517 65.7487 96.1517 65.7487L76.2055 46.5552C76.2055 46.5552 55.7558 74.6123 35.7024 76.0927Z" fill="#92E3A9"/>
<path d="M45.1651 99.1588H44.9087L35.3668 75.8859L35.6837 75.8624C55.4015 74.4008 75.8139 46.6962 76.019 46.4142L76.1728 46.198L96.436 65.697L96.3614 65.8521C96.3614 65.8521 94.963 68.8787 93.0611 72.8593C91.0148 77.1783 80.9974 88.5187 69.9312 93.8904C59.3544 99.0225 46.4469 99.1588 45.1651 99.1588ZM36.0427 76.3277L45.221 98.7123C46.75 98.7123 59.3777 98.5149 69.7307 93.491C80.9181 88.0581 90.8563 76.4405 92.6369 72.6807C94.2731 69.2265 95.5597 66.4866 95.872 65.8239L76.2334 46.9311C74.2896 49.5019 54.9401 74.6405 36.0427 76.3277Z" fill="#263238"/>
<path d="M40.3777 80.7923L45.9714 94.1018C46.3992 93.948 46.8601 93.9126 47.3061 93.9994C47.7521 94.0862 48.1669 94.292 48.5072 94.5952L49.8124 95.648C55.8709 95.1499 61.8548 93.9676 67.6517 92.1232C76.7321 89.1389 87.8822 76.2336 89.8493 73.4419C89.8075 72.0857 89.8464 70.7282 89.9659 69.3767C90.1616 67.9668 92.2546 65.3115 92.2546 65.3115L78.3403 51.5884C78.0327 51.9152 77.651 52.1617 77.2279 52.3066C76.8048 52.4516 76.3531 52.4906 75.9117 52.4202L74.3501 52.2041C74.3501 52.2041 69.1153 60.9643 61.0837 66.8624C53.0521 72.7605 43.8737 76.3276 43.8737 76.3276C43.8737 76.3276 43.2118 80.1578 40.3777 80.7923Z" fill="white"/>
<path d="M49.7192 95.8878L48.3207 94.7787C48.0135 94.5034 47.6395 94.3149 47.2368 94.2324C46.834 94.1499 46.4167 94.1762 46.0273 94.3087L45.8082 94.4074L40.0281 80.6185L40.3031 80.5574C42.9508 79.9652 43.6174 76.3042 43.622 76.2666L43.6453 76.135L43.7665 76.088C43.8598 76.0504 52.9915 72.4786 60.9066 66.6886C68.8217 60.8986 74.0564 52.1854 74.1077 52.1196L74.187 51.988L75.9024 52.2229C76.3045 52.2868 76.716 52.2522 77.1022 52.1221C77.4883 51.9921 77.8378 51.7704 78.1212 51.4757L78.2797 51.2783L92.525 65.3304L92.3945 65.4996C92.3711 65.5231 90.3388 68.0938 90.157 69.4426C90.0372 70.7831 89.9982 72.1297 90.0404 73.4749V73.5079L89.9938 73.5737C88.6187 75.524 77.2915 89.186 67.6749 92.3395C61.8587 94.1855 55.8567 95.3724 49.7798 95.8784L49.7192 95.8878ZM46.7778 93.7165C47.4609 93.7216 48.1206 93.9677 48.6424 94.4121L49.873 95.4084C55.8798 94.8974 61.8123 93.7201 67.5631 91.8977C76.2613 89.045 87.2949 76.6002 89.6023 73.3716C89.5578 72.0278 89.5983 70.6825 89.7235 69.3439C89.8959 68.0609 91.4575 65.946 91.9283 65.3351L78.331 51.9175C77.9996 52.2149 77.6072 52.4349 77.1817 52.5616C76.7562 52.6884 76.3082 52.7188 75.8697 52.6506L74.4713 52.4579C73.7721 53.5812 68.6632 61.5894 61.2235 67.0505C53.7839 72.5115 45.2069 76.041 44.0975 76.4827C43.953 77.1642 43.1652 80.2049 40.7133 80.9475L46.1019 93.8058C46.3228 93.7484 46.5497 93.7184 46.7778 93.7165Z" fill="#263238"/>
<path d="M72.0159 78.3307C75.0396 74.9636 75.8043 70.6947 73.7239 68.7956C71.6436 66.8966 67.506 68.0867 64.4823 71.4537C61.4586 74.8207 60.6938 79.0897 62.7742 80.9887C64.8545 82.8877 68.9922 81.6977 72.0159 78.3307Z" fill="#92E3A9"/>
<path d="M65.6287 83.2973C64.6292 83.3294 63.6548 82.9784 62.9018 82.315C61.839 81.3328 61.4427 79.7537 61.7923 77.8691C62.2326 75.8306 63.2193 73.953 64.6451 72.441C67.7729 68.9914 72.0801 67.8118 74.243 69.8092C75.3105 70.7914 75.702 72.3705 75.3571 74.2551C74.8764 76.2786 73.8936 78.1458 72.5009 79.6814C71.1083 81.217 69.3515 82.3707 67.3954 83.0341C66.821 83.2019 66.2267 83.2904 65.6287 83.2973ZM71.5067 69.2781C69.493 69.2781 66.9991 70.5235 64.9808 72.7418C63.6162 74.1804 62.6683 75.9683 62.2398 77.9114C61.9229 79.6315 62.2678 81.0555 63.2094 81.925C64.151 82.7944 65.5867 83.0106 67.2602 82.5406C69.1325 81.9008 70.8138 80.794 72.148 79.3232C73.4821 77.8524 74.4257 76.0653 74.8909 74.1282C75.2079 72.4081 74.863 70.9794 73.9214 70.1146C73.2496 69.5393 72.3874 69.2405 71.5067 69.2781Z" fill="#263238"/>
<path d="M42.9695 67.7037L32.7563 90.1589C32.7563 90.1589 41.888 100.324 53.425 104.878C64.962 109.432 80.121 108.953 84.2976 107.637L91.6393 105.287L92.0029 77.4885C92.0029 77.4885 57.6949 81.4973 42.9695 67.7037Z" fill="#92E3A9"/>
<path d="M75.1053 108.807C68.6446 108.807 60.3146 107.867 53.3365 105.099C41.8881 100.573 32.6864 90.4267 32.5839 90.3186L32.4813 90.2011L42.8903 67.3137L43.128 67.5345C57.6064 81.0979 91.6347 77.3146 91.975 77.2676L92.2407 77.2394L91.8864 105.466L91.728 105.517C91.728 105.517 88.5629 106.533 84.3862 107.867C82.6009 108.417 79.2354 108.807 75.1053 108.807ZM33.0267 90.1166C34.0709 91.2398 42.8157 100.456 53.509 104.686C65.0693 109.249 80.2748 108.68 84.2231 107.435C87.845 106.293 90.7118 105.376 91.4017 105.156L91.7652 77.7893C88.5535 78.1182 57.1169 80.9428 43.0441 68.122L33.0267 90.1166Z" fill="#263238"/>
<path d="M42.7364 74.3538L36.8677 87.513C37.271 87.7249 37.6105 88.0421 37.8508 88.4314C38.091 88.8208 38.2232 89.2681 38.2335 89.7265L38.3547 91.4043C42.8411 95.5391 47.7743 99.1524 53.0614 102.176C61.41 106.876 78.3776 106.302 81.7432 105.856C82.7001 104.901 83.7135 104.004 84.7777 103.172C85.9524 102.34 89.2853 102.096 89.2853 102.096L89.7888 82.4749C89.3428 82.4702 88.9045 82.3566 88.5116 82.1438C88.1187 81.931 87.7828 81.6253 87.5326 81.253L86.6004 79.9512C86.6004 79.9512 76.6715 82.0472 66.9198 80.1297C57.1682 78.2123 48.3488 73.8698 48.3488 73.8698C48.3488 73.8698 45.1277 76.0175 42.7364 74.3538Z" fill="white"/>
<path d="M75.1799 106.406C68.6026 106.406 58.8276 105.715 52.9449 102.42C47.6446 99.3825 42.6976 95.7569 38.1962 91.6111L38.1309 91.55L38.0004 89.7782C37.9951 89.3626 37.8784 88.9562 37.6625 88.602C37.4467 88.2479 37.1398 87.9592 36.7744 87.7667L36.5554 87.6727L36.6532 87.4565L42.6432 73.9778L42.8716 74.1423C45.1044 75.6979 48.2182 73.6724 48.2462 73.6724L48.3581 73.6019L48.4746 73.6583C48.5632 73.7006 57.3826 78.0149 66.9898 79.8994C76.5969 81.784 86.4792 79.7397 86.5677 79.7209L86.7169 79.688L87.7144 81.0979C87.9407 81.4384 88.2455 81.7185 88.6027 81.9142C88.96 82.1098 89.359 82.2151 89.7655 82.2211H90.0172L89.5044 102.308H89.2947C89.262 102.308 86.0317 102.557 84.9036 103.342C83.8497 104.165 82.8472 105.054 81.9016 106.002L81.8457 106.053H81.7665C79.5784 106.284 77.3799 106.402 75.1799 106.406ZM38.5784 91.3338C43.0474 95.4167 47.9499 98.9898 53.1966 101.988C61.191 106.472 77.7437 106.147 81.6592 105.649C82.6068 104.703 83.6126 103.817 84.6705 102.998C85.7193 102.256 88.3158 101.969 89.0802 101.899L89.5743 82.724C89.1323 82.6817 88.7049 82.5414 88.3229 82.3131C87.9409 82.0848 87.6137 81.7741 87.3648 81.4033L86.5444 80.2284C85.2532 80.4822 75.9537 82.1553 66.9198 80.3835C57.886 78.6117 49.4675 74.6734 48.386 74.1564C47.794 74.5136 45.0624 76.0128 42.8389 74.6969L37.166 87.4283C37.5505 87.6773 37.8696 88.0164 38.096 88.4165C38.3225 88.8167 38.4496 89.2661 38.4665 89.7265L38.5784 91.3338Z" fill="#263238"/>
<path d="M73.5391 91.893C73.5624 94.7128 69.9218 97.0627 65.4096 97.0862C60.8973 97.1097 57.2241 94.8585 57.2008 92.0246C57.1775 89.1907 60.8181 86.8549 65.3303 86.8267C69.8426 86.7985 73.5158 89.0591 73.5391 91.893Z" fill="#92E3A9"/>
<path d="M65.3163 97.3259C60.7295 97.3259 57.0003 94.976 56.977 92.0293C56.9537 89.0826 60.7062 86.6294 65.3349 86.5918H65.4468C70.029 86.5918 73.7581 88.9416 73.7814 91.8883C73.7814 93.3452 72.9144 94.7082 71.3109 95.7374C69.5302 96.8012 67.4931 97.3492 65.4235 97.3212L65.3163 97.3259ZM65.4468 87.0618H65.3163C60.9392 87.0994 57.3919 89.3223 57.4198 92.0246C57.4478 94.727 60.9625 96.8559 65.2883 96.8559H65.3955C67.3779 96.8839 69.3295 96.3603 71.0358 95.3426C72.5042 94.4027 73.3013 93.1855 73.292 91.8978C73.2873 89.2142 69.7633 87.0618 65.4375 87.0618H65.4468Z" fill="#263238"/>
<path d="M56.0588 33.974L34.8866 46.4141C34.8866 46.4141 36.5554 60.0432 43.389 70.4436C50.2227 80.844 62.8924 89.2424 67.0597 90.61C71.227 91.9776 74.3921 92.9598 74.3921 92.9598L90.5626 70.4389C90.5626 70.4389 60.2261 53.8067 56.0588 33.974Z" fill="#92E3A9"/>
<path d="M74.4854 93.2466L74.3222 93.1949C74.3222 93.1949 71.1571 92.1845 66.9898 90.8451C62.4682 89.3882 49.971 80.9146 43.2166 70.5847C36.4622 60.2548 34.6955 46.5881 34.6815 46.4518V46.2967L56.2592 33.6075L56.3291 33.9271C60.4265 53.4261 90.4134 70.0724 90.7164 70.2369L90.9495 70.3685L74.4854 93.2466ZM35.1383 46.5411C35.3528 48.0685 37.2453 60.6402 43.5848 70.3215C50.4325 80.7595 63.1954 89.1203 67.1297 90.3939C70.7469 91.5594 73.6137 92.4712 74.3036 92.6921L90.2223 70.5283C87.4255 68.9304 60.0909 53.0032 55.9003 34.3407L35.1383 46.5411Z" fill="#263238"/>
<path d="M52.0779 39.28L39.7484 46.6491C39.9579 47.0556 40.055 47.5113 40.0295 47.9686C40.0041 48.4259 39.8571 48.8678 39.6039 49.2481L38.7462 50.6956C40.0553 56.6799 42.027 62.497 44.6243 68.0374C48.7776 76.7084 62.967 86.103 65.9782 87.6915C67.3061 87.4656 68.6464 87.3212 69.9917 87.2592C71.4274 87.2592 74.2942 88.9934 74.2942 88.9934L85.9011 73.24C85.539 72.9766 85.2455 72.6287 85.0458 72.226C84.8461 71.8233 84.7461 71.3779 84.7544 70.9277V69.3392C84.7544 69.3392 75.4316 65.2928 68.5606 58.06C61.6897 50.8272 56.9491 42.1656 56.9491 42.1656C56.9491 42.1656 53.0801 42.0199 52.0779 39.28Z" fill="white"/>
<path d="M74.3549 89.3034L74.1731 89.1953C74.1451 89.1953 71.3436 87.494 69.9778 87.494C68.6451 87.556 67.3173 87.6988 66.0016 87.9217H65.927L65.8571 87.8841C63.7548 86.775 48.801 77.3051 44.4146 68.1454C41.8155 62.5875 39.8378 56.7554 38.5179 50.7565V50.6673L39.4222 49.1446C39.6499 48.8007 39.7836 48.4024 39.8098 47.9898C39.836 47.5772 39.7537 47.165 39.5714 46.7947L39.4455 46.5926L39.6506 46.4704L52.2364 38.9509L52.3297 39.2141C53.262 41.7801 56.9585 41.9493 56.9911 41.954H57.1216L57.1869 42.0715C57.2335 42.1561 61.9835 50.7989 68.7612 57.9142C75.5389 65.0295 84.7871 69.0947 84.8804 69.137L85.0202 69.1981V70.9417C85.0106 71.3528 85.1002 71.76 85.2812 72.1284C85.4623 72.4968 85.7295 72.8153 86.0597 73.0566L86.2695 73.1882L86.125 73.395L74.3549 89.3034ZM69.9778 87.0241C71.2644 87.0241 73.5485 88.2977 74.215 88.6831L85.5656 73.2869C85.2291 72.9974 84.9599 72.6368 84.777 72.2307C84.5941 71.8246 84.5021 71.383 84.5075 70.937V69.4989C83.3095 68.9538 74.7511 64.9308 68.3789 58.2197C62.0068 51.5085 57.392 43.4297 56.8093 42.3958C56.1194 42.3441 53.0289 41.9869 51.9614 39.6183L40.0515 46.7195C40.2268 47.1452 40.2959 47.6076 40.2528 48.0664C40.2098 48.5252 40.0558 48.9664 39.8044 49.3513L38.9934 50.719C40.3068 56.6502 42.2655 62.4172 44.8341 67.9151C48.8103 76.2195 62.5475 85.5578 66.0203 87.4282C67.3296 87.2092 68.6515 87.0743 69.9778 87.0241Z" fill="#263238"/>
<path d="M67.2531 71.4851C68.8523 69.154 67.1398 65.166 63.4281 62.5777C59.7165 59.9895 55.4112 59.781 53.812 62.1121C52.2128 64.4432 53.9253 68.4311 57.6369 71.0194C61.3486 73.6077 65.6539 73.8162 67.2531 71.4851Z" fill="#92E3A9"/>
<path d="M63.5869 73.3387C61.3954 73.2574 59.2775 72.5195 57.5038 71.2191C53.6954 68.5638 51.952 64.4234 53.6208 61.9889C55.2896 59.5545 59.7506 59.7378 63.559 62.3978C65.2849 63.5495 66.6637 65.1574 67.5445 67.0458C68.2996 68.8035 68.2623 70.4343 67.4419 71.628C66.6215 72.8217 65.2511 73.3387 63.5869 73.3387ZM57.4712 60.7341C55.9655 60.7341 54.7069 61.237 54.0031 62.2568C52.4834 64.4751 54.1709 68.3241 57.7695 70.8337C61.3681 73.3434 65.5354 73.5831 67.0597 71.3601C67.7869 70.3027 67.8055 68.8364 67.1156 67.2338C66.2718 65.424 64.9492 63.884 63.2933 62.7832C61.5963 61.5345 59.5702 60.8215 57.4712 60.7341Z" fill="#263238"/>
<path d="M47.9945 44.9197L26.827 57.3551C26.827 57.3551 28.4911 70.9841 35.3294 81.3893C42.1677 91.7944 54.8281 100.212 58.9954 101.556C63.1627 102.9 66.3325 103.905 66.3325 103.905L82.503 81.3846C82.503 81.3846 52.1618 64.7524 47.9945 44.9197Z" fill="#92E3A9"/>
<path d="M66.4211 104.183L66.2626 104.131C66.2626 104.131 63.0928 103.125 58.9255 101.781C54.404 100.32 41.9067 91.8461 35.1523 81.5162C28.3979 71.1863 26.6266 57.5289 26.5939 57.3833V57.2329L48.1763 44.5437L48.2416 44.8633C52.339 64.3576 82.3305 81.0086 82.6289 81.1731L82.8619 81.3L66.4211 104.183ZM27.0927 57.4819C27.3025 59.0093 29.1997 71.581 35.5345 81.2577C42.3822 91.7004 55.1451 100.056 59.084 101.33C62.7013 102.5 65.5634 103.412 66.2579 103.633L82.172 81.4645C79.3752 79.8713 52.0406 63.9393 47.85 45.2769L27.0927 57.4819Z" fill="#263238"/>
<path d="M44.0136 50.2208L31.6842 57.5946C31.8938 58.0008 31.9914 58.4562 31.9668 58.9134C31.9422 59.3706 31.7963 59.8127 31.5443 60.1936L30.6819 61.6411C31.991 67.6254 33.9627 73.4425 36.56 78.9829C40.718 87.6539 54.9073 97.0438 57.9186 98.637C59.2463 98.4084 60.5866 98.2624 61.9321 98.2C63.3632 98.2 66.2299 99.9342 66.2299 99.9342L77.8415 84.1855C77.4794 83.9221 77.1859 83.5742 76.9862 83.1715C76.7865 82.7688 76.6865 82.3234 76.6948 81.8732V80.28C76.6948 80.28 67.372 76.2336 60.4964 69.0008C53.6208 61.768 48.8848 53.1017 48.8848 53.1017C48.8848 53.1017 45.0158 52.9701 44.0136 50.2208Z" fill="white"/>
<path d="M66.2906 100.244L66.1088 100.136C66.0808 100.136 63.284 98.435 61.9135 98.435C60.5806 98.4974 59.2527 98.6418 57.9373 98.8673H57.8581L57.7881 98.8297C55.6858 97.7159 40.732 88.2507 36.3456 79.0675C33.7475 73.5092 31.7698 67.6772 30.4489 61.6787V61.5894L31.3812 60.0667C31.6082 59.7224 31.741 59.3239 31.7664 58.9113C31.7918 58.4987 31.7087 58.0867 31.5257 57.7168L31.3998 57.5147L31.6049 57.3926L44.1908 49.873L44.2887 50.1362C45.221 52.7023 48.9128 52.8715 48.9501 52.8715H49.0853L49.1459 52.9889C49.1925 53.0782 53.9425 61.7163 60.7202 68.8363C67.4979 75.9563 76.7508 80.0169 76.844 80.0545L76.9839 80.1156V81.8638C76.9733 82.2739 77.062 82.6803 77.2423 83.048C77.4226 83.4157 77.6891 83.7335 78.0187 83.974L78.2331 84.1103L78.084 84.3124L66.2906 100.244ZM61.9321 97.9462C63.214 97.9462 65.5028 99.2198 66.1694 99.6052L77.5153 84.2137C77.1806 83.9229 76.9129 83.562 76.731 83.1561C76.549 82.7503 76.4571 82.3092 76.4618 81.8638V80.4257C75.2638 79.8806 66.7008 75.8576 60.3286 69.1465C53.9564 62.4353 49.3323 54.3613 48.745 53.3132C48.0551 53.2615 44.9646 52.8996 43.9018 50.5357L31.9918 57.6557C32.1651 58.0818 32.2332 58.5439 32.1901 59.0024C32.1471 59.4608 31.9943 59.9018 31.7448 60.2876L30.929 61.6552C32.2424 67.5864 34.2012 73.3534 36.7698 78.8513C40.7506 87.1557 54.4832 96.494 57.9559 98.3598C59.2717 98.1397 60.5996 98.0016 61.9321 97.9462Z" fill="#263238"/>
<path d="M58.8696 82.9676C60.472 80.6434 58.7711 76.6568 55.0705 74.0633C51.3698 71.4698 47.0708 71.2515 45.4684 73.5756C43.866 75.8998 45.5669 79.8864 49.2676 82.4799C52.9682 85.0734 57.2672 85.2918 58.8696 82.9676Z" fill="#92E3A9"/>
<path d="M55.5273 84.2842C53.3439 84.1975 51.235 83.4599 49.4675 82.1647C47.7415 81.013 46.3628 79.405 45.4819 77.5167C44.7268 75.7543 44.7641 74.1282 45.5845 72.9345C47.2533 70.5 51.7096 70.6833 55.5226 73.3387C57.2475 74.4923 58.6247 76.1019 59.5035 77.9914C60.2633 79.749 60.226 81.3751 59.4056 82.5736C58.5852 83.772 57.1914 84.2842 55.5273 84.2842ZM49.4115 71.6797C47.9059 71.6797 46.6473 72.1778 45.9481 73.1977C45.2489 74.2175 45.2022 75.7261 45.8921 77.3287C46.7374 79.1375 48.0597 80.6772 49.7145 81.7793C53.3131 84.2889 57.4804 84.5239 59.0001 82.3057C59.7272 81.2482 59.7505 79.7819 59.0606 78.1746C58.2123 76.3691 56.8905 74.8317 55.2383 73.7287C53.5387 72.4783 51.5091 71.7651 49.4069 71.6797H49.4115Z" fill="#263238"/>
<path d="M24.8132 88.8477L34.178 111.674C34.178 111.674 47.78 111.853 58.9441 106.429C70.1082 101.006 80.0744 89.5103 81.9622 85.5109C83.8501 81.5115 85.2625 78.5037 85.2625 78.5037L65.3163 59.3054C65.3163 59.3054 44.8667 87.3626 24.8132 88.8477Z" fill="#92E3A9"/>
<path d="M34.276 111.914H34.0196L24.4777 88.6409L24.7993 88.6174C44.5124 87.1605 64.9248 59.4511 65.1299 59.1738L65.2884 58.9576L85.5469 78.4519L85.477 78.607C85.477 78.607 84.0553 81.6336 82.172 85.619C80.1257 89.938 70.1083 101.274 59.0421 106.645C48.47 111.777 35.5579 111.914 34.276 111.914ZM25.1536 89.0544L34.3319 111.444C35.8608 111.444 48.4886 111.246 58.8416 106.218C70.029 100.79 79.9719 89.1719 81.7525 85.4122L84.9829 78.5553L65.3443 59.6579C63.4005 62.2521 44.051 87.3908 25.1536 89.0544Z" fill="#263238"/>
<path d="M29.4887 93.5426L35.0824 106.852C35.511 106.698 35.9727 106.662 36.4195 106.749C36.8663 106.836 37.2818 107.042 37.6229 107.346L38.9234 108.403C44.9823 107.905 50.9663 106.721 56.7627 104.874C65.8431 101.894 76.9932 88.9886 78.965 86.197C78.9208 84.8393 78.9581 83.4802 79.0769 82.1271C79.2727 80.7172 81.3656 78.0666 81.3656 78.0666L67.4513 64.3387C67.1445 64.6652 66.7635 64.9115 66.3412 65.0564C65.9189 65.2013 65.468 65.2405 65.0274 65.1706L63.4611 64.9591C63.4611 64.9591 58.2077 73.7193 50.1761 79.6174C42.1445 85.5156 32.9848 89.0685 32.9848 89.0685C32.9848 89.0685 32.3229 92.9129 29.4887 93.5426Z" fill="white"/>
<path d="M38.8302 108.643L37.4318 107.529C37.1265 107.25 36.7525 107.06 36.349 106.977C35.9454 106.894 35.5273 106.923 35.1383 107.059L34.9193 107.153L34.826 106.937L29.1391 93.3641L29.4141 93.303C32.0618 92.7155 32.7284 89.0498 32.7331 89.0169V88.8853L32.8543 88.8383C32.9475 88.8007 42.0839 85.2242 49.9943 79.4154C57.9047 73.6066 63.1441 64.9169 63.2001 64.8464L63.2793 64.7148L64.9901 64.9498C65.3927 65.0154 65.8051 64.9812 66.1917 64.8502C66.5782 64.7192 66.9274 64.4953 67.2089 64.1978L67.3721 64.0051L67.5492 64.179L81.6127 78.0572L81.4822 78.2217C81.4822 78.2499 79.4265 80.8206 79.2447 82.1694C79.1249 83.5084 79.086 84.8534 79.1282 86.1971V86.277L79.0815 86.3428C77.7064 88.2931 66.3838 101.95 56.7627 105.109C50.9465 106.955 44.9444 108.142 38.8675 108.647L38.8302 108.643ZM35.8888 106.467C36.5723 106.474 37.2318 106.722 37.7534 107.167L38.984 108.163C44.9908 107.652 50.9233 106.475 56.6741 104.653C65.3723 101.795 76.4059 89.3506 78.7133 86.1219C78.6713 84.7781 78.7118 83.433 78.8345 82.0942C79.007 80.8159 80.5685 78.7011 81.0393 78.0854L67.4373 64.6725C67.106 64.9699 66.7135 65.1899 66.288 65.3166C65.8626 65.4434 65.4146 65.4738 64.9761 65.4056L63.5777 65.213C62.8784 66.3362 57.7695 74.3444 50.3299 79.782C42.8903 85.2195 34.3133 88.7678 33.2039 89.2143C33.0594 89.8957 32.2716 92.9317 29.8197 93.679L35.2083 106.537C35.431 106.483 35.6599 106.46 35.8888 106.467Z" fill="#263238"/>
<path d="M61.4391 92.2831C64.4845 88.9253 65.2715 84.6527 63.1968 82.74C61.1221 80.8273 56.9714 81.9989 53.926 85.3567C50.8806 88.7146 50.0936 92.9872 52.1683 94.8999C54.243 96.8125 58.3936 95.641 61.4391 92.2831Z" fill="#92E3A9"/>
<path d="M54.7396 96.0664C53.742 96.1005 52.7689 95.7511 52.0173 95.0889C49.8497 93.0915 50.6189 88.6597 53.7607 85.2195C55.1313 83.6469 56.9055 82.4858 58.8882 81.8639C60.7202 81.347 62.3144 81.6055 63.3818 82.5877C64.4493 83.5699 64.8409 85.1443 64.4913 87.0289C64.0121 89.0537 63.0299 90.9222 61.6371 92.4588C60.2443 93.9954 58.4866 95.1496 56.5295 95.8126C55.9472 95.9795 55.3449 96.0649 54.7396 96.0664ZM60.6269 82.0707C60.073 82.0764 59.5225 82.1586 58.9908 82.3151C57.0993 82.9143 55.4076 84.0263 54.1009 85.5297C51.1503 88.7866 50.3718 92.9176 52.3296 94.7411C53.2619 95.6058 54.7069 95.8267 56.3804 95.3521C58.2537 94.7142 59.9362 93.608 61.2706 92.1369C62.605 90.6658 63.5479 88.8777 64.0111 86.9396C64.3281 85.2195 63.9831 83.7955 63.0415 82.9261C62.3754 82.3371 61.5125 82.0247 60.6269 82.0519V82.0707Z" fill="#263238"/>
<path d="M32.0851 68.0515L25.7222 91.9071C25.7222 91.9071 36.4155 100.395 48.5352 102.951C60.6549 105.508 75.5295 102.481 79.4311 100.493C83.3327 98.5055 86.2834 96.964 86.2834 96.964L82.0601 69.4896C82.0601 69.4896 48.8848 79.1851 32.0851 68.0515Z" fill="#92E3A9"/>
<path d="M58.9302 104.178C55.4235 104.205 51.9233 103.871 48.484 103.182C36.4435 100.644 25.6849 92.175 25.5777 92.0904L25.4565 91.9917L31.9452 67.6755L32.2156 67.8541C38.2754 71.863 46.5215 73.1413 54.5671 73.1413C68.4861 73.1413 81.7805 69.3251 81.9902 69.264L82.2466 69.1888L86.5351 97.0956L86.386 97.1708C86.386 97.1708 83.4306 98.7029 79.5337 100.705C76.5037 102.265 67.9547 104.178 58.9302 104.178ZM25.9879 91.8366C27.1999 92.7766 37.3338 100.376 48.5818 102.745C60.7295 105.306 75.6181 102.199 79.3192 100.31C82.7034 98.5713 85.3791 97.1896 86.0224 96.8559L81.8644 69.8092C78.7552 70.6739 48.2229 78.7386 32.2296 68.4463L25.9879 91.8366Z" fill="#263238"/>
<path d="M32.9567 74.6452L29.3395 88.6268C29.7723 88.7667 30.1596 89.0217 30.4607 89.3649C30.7618 89.7082 30.9654 90.127 31.0502 90.5771L31.4511 92.2126C36.5575 95.5358 42.0175 98.2709 47.7288 100.367C56.7346 103.581 73.3666 100.188 76.6296 99.187C77.4148 98.0828 78.2663 97.0281 79.1794 96.0288C80.1955 95.0137 83.4446 94.21 83.4446 94.21L80.699 74.7815C80.258 74.8516 79.8068 74.813 79.3838 74.6689C78.9609 74.5249 78.5789 74.2797 78.2704 73.9543L77.161 72.8217C77.161 72.8217 67.7169 76.558 57.7834 76.2995C47.85 76.041 38.4386 73.24 38.4386 73.24C38.4386 73.24 35.5858 75.8812 32.9567 74.6452Z" fill="white"/>
<path d="M57.5877 101.969C53.9891 101.969 50.4837 101.598 47.6496 100.587C41.9261 98.481 36.4538 95.7366 31.3346 92.4053L31.26 92.3583L30.8405 90.6335C30.7652 90.2245 30.5823 89.8433 30.3108 89.53C30.0394 89.2166 29.6894 88.9826 29.2976 88.8523L29.0692 88.7959L29.1297 88.5656L32.8169 74.3115L33.0687 74.4289C35.5299 75.5898 38.2661 73.0942 38.2941 73.066L38.3873 72.9767L38.5178 73.0144C38.6111 73.0425 48.0132 75.8342 57.7975 76.0691C67.5818 76.3041 76.9932 72.6431 77.0864 72.6055L77.2263 72.5491L78.4429 73.7851C78.7219 74.0854 79.0695 74.3122 79.4555 74.4457C79.8415 74.5793 80.254 74.6155 80.6571 74.5511L80.9041 74.4994L80.9368 74.7485L83.7103 94.3885L83.5052 94.4402C83.4726 94.4402 80.3075 95.2392 79.3472 96.1979C78.4442 97.1882 77.6006 98.2318 76.8207 99.3232L76.7788 99.3843L76.7042 99.4078C70.4528 101.01 64.0371 101.869 57.5877 101.969ZM31.6562 92.0669C36.7276 95.3503 42.1427 98.0596 47.8034 100.146C56.427 103.224 72.6954 100.146 76.4758 98.9848C77.2547 97.8928 78.1 96.8506 79.0069 95.8642C79.9159 94.9525 82.4331 94.2334 83.1742 94.0361L80.4939 75.0446C80.0505 75.0759 79.6057 75.0079 79.1914 74.8454C78.7772 74.6829 78.4038 74.4299 78.098 74.1047L77.0957 73.0848C75.8651 73.5548 66.9758 76.7553 57.7742 76.525C48.5725 76.2947 39.6413 73.818 38.4945 73.489C37.9678 73.959 35.5206 75.8765 33.1153 74.9506L29.6192 88.4575C30.0444 88.6363 30.4192 88.9181 30.7103 89.2781C31.0014 89.638 31.1999 90.0648 31.288 90.5207L31.6562 92.0669Z" fill="#263238"/>
<path d="M59.0614 93.2624C63.5053 92.4692 66.7104 89.5636 66.2203 86.7727C65.7302 83.9817 61.7304 82.3622 57.2866 83.1555C52.8427 83.9487 49.6375 86.8543 50.1277 89.6452C50.6178 92.4362 54.6175 94.0556 59.0614 93.2624Z" fill="#92E3A9"/>
<path d="M56.8186 93.7166C55.524 93.7327 54.2381 93.5014 53.0289 93.0351C51.2622 92.3208 50.1528 91.1553 49.9011 89.703C49.393 86.7939 52.6979 83.7579 57.2475 82.9449C61.797 82.1318 65.941 83.8378 66.4538 86.7516C66.7055 88.1616 66.0622 89.6796 64.6498 90.9579C63.0682 92.3058 61.149 93.1886 59.1027 93.5098C58.3487 93.6452 57.5845 93.7144 56.8186 93.7166ZM59.5315 83.2081C58.7939 83.2103 58.0578 83.2764 57.3314 83.4055C53.0195 84.1762 49.8964 86.9631 50.3625 89.6232C50.5816 90.8874 51.5932 91.9448 53.2013 92.5981C55.073 93.2418 57.0759 93.397 59.0232 93.0494C60.9705 92.7018 62.7988 91.8626 64.3375 90.6101C65.6287 89.4399 66.202 88.1005 65.9923 86.8503C65.6054 84.618 62.8924 83.1893 59.5315 83.1893V83.2081Z" fill="#263238"/>
<path d="M59.6854 38.6268C59.6854 38.6268 55.1824 53.4215 53.0335 56.1849C50.8846 58.9483 43.0534 61.3122 42.0745 62.8913C41.0956 64.4704 33.8611 82.0238 33.8611 82.0238L60.0769 94.055C60.0769 94.055 65.7499 73.9356 67.7076 72.5539C69.6654 71.1722 76.5084 69.0056 77.6831 67.0318C78.8578 65.0579 84.5307 49.0836 85.1414 45.9254L85.7287 42.772L59.6854 38.6268Z" fill="#92E3A9"/>
<path d="M60.2261 94.3838L33.5581 82.1411L33.6467 81.9343C33.9403 81.2153 40.8998 64.3434 41.8787 62.7643C42.3449 62.0077 44.0696 61.1805 46.2418 60.1419C48.7963 58.9153 51.6864 57.5289 52.8471 56.0391C54.9494 53.3414 59.415 38.7066 59.4616 38.5609L59.5222 38.3635L85.9758 42.5932L85.3605 45.9723C84.7918 49.0224 79.1421 65.0625 77.9022 67.1538C77.1284 68.4556 74.1358 69.7762 71.5021 70.9465C70.2429 71.4512 69.0243 72.053 67.8568 72.7465C66.3092 73.8415 61.8902 88.5468 60.3193 94.1206L60.2261 94.3838ZM34.1641 81.9015L59.9278 93.7165C60.6316 91.2397 65.6706 73.6958 67.5725 72.3517C68.766 71.6406 70.0129 71.0246 71.3016 70.5094C73.7489 69.4238 76.7928 68.075 77.492 66.9C78.7273 64.8275 84.3349 48.9096 84.899 45.8736L85.4397 42.9551L59.8578 38.8852C59.2938 40.7134 55.271 53.6986 53.2246 56.321C51.994 57.8954 49.0294 59.31 46.4516 60.5508C44.5124 61.4907 42.6805 62.3555 42.2843 62.9993C41.3753 64.4656 34.9845 79.9088 34.1641 81.9015Z" fill="#263238"/>
<path d="M63.6755 41.7004C63.2699 42.2284 62.7625 42.668 62.1838 42.9929C61.4689 43.3916 60.6698 43.6124 59.8531 43.6367C59.8531 43.6367 56.2312 55.7807 54.9493 57.2658C53.6674 58.7509 44.8061 62.9806 43.8738 63.836C42.9415 64.6913 37.5855 77.9351 37.5855 77.9351C38.0438 78.3586 38.3448 78.9274 38.4386 79.547C38.4999 80.2255 38.4999 80.9082 38.4386 81.5867L56.3477 89.8629C56.3477 89.8629 56.7719 88.0347 58.478 87.7151L60.1841 87.3908C60.1841 87.3908 64.7662 72.7748 66.0435 71.4871C67.3207 70.1994 73.8234 68.2631 75.4222 66.6511C77.0211 65.0391 82.0321 48.7923 82.0321 48.7923C82.0321 48.7923 80.8621 47.3824 80.6337 46.1088C80.5191 45.5053 80.4474 44.8943 80.4193 44.2806L63.6755 41.7004Z" fill="white"/>
<path d="M56.4829 90.1776L38.1682 81.7182V81.549C38.2265 80.8861 38.2265 80.2192 38.1682 79.5563C38.077 78.9978 37.8049 78.4855 37.3944 78.0994L37.2686 77.9866L37.3292 77.8315C37.8792 76.4733 42.7084 64.5361 43.678 63.6667C44.9384 62.8386 46.2493 62.0915 47.6029 61.4296C50.4557 59.9069 54.0077 58.0082 54.7535 57.1294C55.7418 55.9686 58.3615 47.7535 59.6107 43.5661L59.662 43.4016H59.8345C60.6131 43.378 61.3751 43.1687 62.058 42.7907C62.6078 42.4828 63.0912 42.0673 63.4797 41.5687L63.559 41.4465L63.7081 41.47L80.6384 44.0784V44.2804C80.668 44.8814 80.7381 45.4797 80.8482 46.071C81.0486 47.2788 82.172 48.6277 82.1813 48.6418L82.2652 48.7404L82.2279 48.8626C82.0228 49.53 77.1843 65.1659 75.5621 66.7967C74.6858 67.6802 72.4809 68.6201 70.346 69.5272C68.5793 70.2791 66.752 71.0593 66.1833 71.6327C65.1671 72.6572 61.6478 83.3819 60.3752 87.4424L60.3333 87.5787L58.492 87.9265C56.9537 88.2178 56.5482 89.8815 56.5435 89.8956L56.4829 90.1776ZM38.6623 81.4221L56.1799 89.5197C56.3406 89.0094 56.6314 88.5506 57.0233 88.1893C57.4151 87.8281 57.8943 87.577 58.4128 87.4612L59.979 87.1651C60.4731 85.6001 64.6031 72.5632 65.857 71.3037C66.491 70.6598 68.281 69.8938 70.1688 69.0948C72.1639 68.2442 74.4247 67.2854 75.2358 66.4677C76.4618 65.2317 80.0091 54.4741 81.7618 48.8438C81.1166 48.058 80.6546 47.1361 80.41 46.1462C80.311 45.5958 80.241 45.0404 80.2002 44.4825L63.792 41.9541C63.3762 42.4508 62.8778 42.8706 62.319 43.1948C61.616 43.5891 60.8335 43.8173 60.0303 43.8622C59.5641 45.3708 56.3571 55.9874 55.1265 57.4349C54.3247 58.3748 50.8799 60.2218 47.836 61.8479C46.5254 62.4968 45.2523 63.2202 44.023 64.0144C43.3517 64.6113 39.9908 72.5632 37.8512 77.855C38.2896 78.3014 38.574 78.8781 38.6623 79.4999C38.7182 80.1394 38.7182 80.7826 38.6623 81.4221Z" fill="#263238"/>
<path d="M51.0571 64.5785C51.0571 66.4349 54.7536 67.9388 59.3078 67.9388C63.862 67.9388 67.5585 66.4349 67.5585 64.5785C67.5585 62.7221 63.8667 61.2182 59.3078 61.2182C54.7489 61.2182 51.0571 62.6986 51.0571 64.5785Z" fill="#92E3A9"/>
<path d="M59.3077 68.1596C54.5531 68.1596 50.824 66.5805 50.824 64.5644C50.824 62.5482 54.5531 60.9691 59.3077 60.9691C64.0624 60.9691 67.7915 62.5482 67.7915 64.5644C67.7915 66.5805 64.0671 68.1596 59.3077 68.1596ZM59.3077 61.4391C54.9633 61.4391 51.2901 62.849 51.2901 64.5644C51.2901 66.2798 54.9633 67.6897 59.3077 67.6897C63.6522 67.6897 67.3254 66.2563 67.3254 64.5644C67.3254 62.8725 63.6569 61.4391 59.3077 61.4391Z" fill="#263238"/>
<path d="M89.8131 48.7845C89.825 48.7846 89.8368 48.7848 89.8484 48.7849L87.8498 77.4023C87.6277 77.3918 87.3329 77.3778 86.9726 77.3603C86.0963 77.3177 84.8325 77.2544 83.2831 77.172C80.1841 77.007 75.9429 76.7653 71.3736 76.458C62.2205 75.8423 51.7962 74.9661 46.5763 73.9234C41.328 72.875 36.4216 71.7207 32.8267 70.8284C31.0294 70.3823 29.5606 70.0018 28.5413 69.7329C28.0317 69.5985 27.6345 69.4919 27.365 69.4191C27.3649 69.4191 27.3649 69.4191 27.3649 69.4191L30.3617 42.1579L30.9899 42.2463L34.0842 42.6812C36.6919 43.0476 40.2823 43.5519 44.2128 44.1036C52.0736 45.2068 61.2954 46.4993 66.738 47.256C72.2028 48.0158 78.115 48.3985 82.656 48.5915C84.9276 48.688 86.8584 48.7372 88.2217 48.7622C88.9034 48.7747 89.4433 48.7812 89.8131 48.7845Z" fill="#5E67AC" stroke="black"/>
<path d="M50.1434 55.6247C50.471 55.6698 50.6083 55.8879 50.5553 56.279C50.5023 56.6701 50.312 56.8431 49.9844 56.798L47.1155 56.4027L46.0044 64.5997C45.9772 64.8006 45.887 64.9496 45.7339 65.047C45.5794 65.1549 45.3647 65.1899 45.09 65.1521C44.8152 65.1142 44.6178 65.0224 44.4976 64.8766C44.376 64.7414 44.3288 64.5734 44.356 64.3726L45.4671 56.1756L42.5982 55.7803C42.2706 55.7352 42.1333 55.517 42.1863 55.1259C42.2394 54.7349 42.4296 54.5619 42.7572 54.607L50.1434 55.6247ZM52.3661 65.4762C52.3389 65.6771 52.2487 65.8262 52.0956 65.9235C51.941 66.0314 51.7264 66.0664 51.4516 66.0286C51.1769 65.9907 50.9794 65.8989 50.8592 65.7532C50.7376 65.618 50.6904 65.4499 50.7177 65.2491L51.9018 56.513C51.929 56.3122 52.0192 56.1631 52.1723 56.0657C52.3269 55.9578 52.5415 55.9228 52.8163 55.9607C53.091 55.9985 53.2885 56.0903 53.4087 56.2361C53.5303 56.3713 53.5775 56.5393 53.5502 56.7401L52.3661 65.4762ZM56.1602 65.999C56.1359 66.1787 56.0471 66.3172 55.894 66.4146C55.7423 66.5013 55.5344 66.5265 55.2702 66.4901C55.006 66.4537 54.8072 66.3725 54.6735 66.2464C54.5414 66.1097 54.4875 65.9516 54.5118 65.7719L55.4424 58.9067C55.4854 58.5896 55.5437 58.3176 55.6175 58.0909C55.6913 57.8642 55.8031 57.675 55.9528 57.5234C56.1131 57.3732 56.3233 57.2514 56.5836 57.1581C56.8544 57.0662 57.1984 56.9897 57.6157 56.9288C57.78 56.9084 57.9759 56.8923 58.2035 56.8806C58.4432 56.8598 58.6866 56.8502 58.934 56.852C59.1827 56.8432 59.4195 56.8435 59.6443 56.853C59.8796 56.8639 60.0871 56.8817 60.2667 56.9064C61.5242 57.0797 62.4187 57.429 62.9503 57.9545C63.4818 58.48 63.7004 59.0915 63.6058 59.7892C63.5385 60.2859 63.357 60.7509 63.0615 61.1839C62.7766 61.6184 62.3931 61.9855 61.9112 62.2852C61.4292 62.5849 60.8562 62.802 60.1921 62.9367C59.528 63.0713 58.7944 63.0833 57.9913 62.9726C57.7906 62.9449 57.5648 62.9031 57.3141 62.847C57.0739 62.7924 56.8404 62.7279 56.6137 62.6536L56.1602 65.999ZM56.7298 61.7974C56.9051 61.8539 57.1128 61.9094 57.353 61.9641C57.6052 62.0096 57.8528 62.0491 58.0958 62.0825C59.3005 62.2485 60.2052 62.1255 60.81 61.7136C61.4254 61.303 61.7896 60.6803 61.9028 59.8452C61.9802 59.2745 61.8382 58.8134 61.4767 58.4621C61.1168 58.1003 60.5616 57.8677 59.8114 57.7643C59.6001 57.7352 59.3707 57.7197 59.1234 57.718C58.888 57.7071 58.683 57.7111 58.5082 57.7301C58.2248 57.7557 57.9936 57.7938 57.8145 57.8445C57.6474 57.8861 57.5137 57.9592 57.4134 58.0638C57.3251 58.1593 57.2582 58.2955 57.2128 58.4722C57.1687 58.6384 57.1266 58.8695 57.0865 59.1655L56.7298 61.7974ZM68.6889 67.3214C69.2066 67.3928 69.6675 67.4078 70.0713 67.3665C70.4872 67.3162 70.8387 67.2246 71.1258 67.0919C71.4234 66.9606 71.6553 66.7988 71.8213 66.6063C71.9888 66.4032 72.0882 66.1854 72.1198 65.9529C72.1398 65.8049 72.1359 65.6752 72.1079 65.5637C72.092 65.443 72.0316 65.3324 71.9269 65.2318C71.8341 65.1221 71.6878 65.0105 71.4879 64.8968C71.2986 64.7846 71.0413 64.6576 70.7161 64.5159L67.7341 63.1682C66.9836 62.828 66.475 62.451 66.2081 62.0374C65.9413 61.6238 65.8472 61.1263 65.926 60.5449C65.9791 60.1538 66.1289 59.803 66.3755 59.4924C66.6235 59.1713 66.955 58.9101 67.3698 58.7088C67.7951 58.509 68.3024 58.3797 68.8916 58.3209C69.4823 58.2515 70.1528 58.2685 70.903 58.3719C71.3785 58.4374 71.8581 58.552 72.3419 58.7155C72.8271 58.8685 73.2643 59.0579 73.6534 59.2838C74.0426 59.5097 74.3483 59.7564 74.5703 60.0239C74.8044 60.2823 74.9028 60.5489 74.8656 60.8237C74.8369 61.0351 74.7213 61.213 74.5188 61.3574C74.3268 61.5032 74.067 61.5535 73.7394 61.5084C73.5281 61.4793 73.3482 61.4168 73.1997 61.321C73.0512 61.2251 72.9419 61.1186 72.8717 61.0012C72.562 60.5063 72.1936 60.1271 71.7665 59.8637C71.3393 59.6003 70.8246 59.4271 70.2223 59.3441C69.4932 59.2436 68.9063 59.3243 68.4618 59.5861C68.0293 59.8387 67.7837 60.1817 67.7249 60.6151C67.6834 60.9216 67.7494 61.1891 67.9229 61.4176C68.0979 61.6356 68.4547 61.8624 68.9932 62.0981L72.2382 63.5304C72.6029 63.6991 72.9027 63.8696 73.1377 64.042C73.3846 64.2052 73.5759 64.3823 73.7115 64.5733C73.8485 64.7536 73.9344 64.9539 73.9691 65.174C74.0053 65.3836 74.0062 65.6152 73.9718 65.8689C73.9246 66.2177 73.7483 66.5649 73.4431 66.9105C73.15 67.247 72.76 67.5432 72.2732 67.7991C71.7878 68.0445 71.2191 68.2299 70.567 68.3554C69.9163 68.4704 69.2159 68.4762 68.4656 68.3728C67.7365 68.2723 67.0861 68.1073 66.5144 67.8778C65.9428 67.6483 65.468 67.3783 65.0903 67.0679C64.714 66.7469 64.434 66.3906 64.2503 65.9992C64.0771 65.6093 64.0184 65.2082 64.0743 64.7959C64.1158 64.4894 64.228 64.2572 64.4109 64.0994C64.6043 63.943 64.8331 63.883 65.0973 63.9194C65.3615 63.9558 65.5582 64.0529 65.6875 64.2107C65.8168 64.3685 65.9177 64.6569 65.99 65.076C66.0296 65.3399 66.1242 65.5952 66.2737 65.8419C66.4338 66.0901 66.6292 66.3162 66.8599 66.5203C67.1026 66.7152 67.3753 66.8874 67.6779 67.0368C67.9926 67.177 68.3296 67.2719 68.6889 67.3214Z" fill="#F5F5F5"/>
</svg>
