<svg width="58" height="59" viewBox="0 0 58 59" fill="none" xmlns="http://www.w3.org/2000/svg">
<path d="M16.375 55.75H8.5C7.10761 55.75 5.77226 55.1969 4.78769 54.2123C3.80312 53.2277 3.25 51.8924 3.25 50.5V32.125C3.25 30.7326 3.80312 29.3973 4.78769 28.4127C5.77226 27.4281 7.10761 26.875 8.5 26.875H16.375M34.75 21.625V11.125C34.75 9.03642 33.9203 7.03338 32.4435 5.55653C30.9666 4.07969 28.9636 3.25 26.875 3.25L16.375 26.875V55.75H45.985C47.2511 55.7643 48.4797 55.3206 49.4445 54.5005C50.4093 53.6805 51.0452 52.5394 51.235 51.2875L54.8575 27.6625C54.9717 26.9101 54.921 26.1418 54.7088 25.4109C54.4966 24.68 54.128 24.004 53.6286 23.4297C53.1292 22.8554 52.511 22.3966 51.8166 22.0849C51.1223 21.7733 50.3685 21.6164 49.6075 21.625H34.75Z" stroke="#5E6BDF" stroke-width="5.25" stroke-linecap="round" stroke-linejoin="round"/>
</svg>
