<svg width="20" height="20" viewBox="0 0 20 20" fill="none" xmlns="http://www.w3.org/2000/svg">
<path d="M10 2.08333C6.77834 2.08333 4.16667 4.695 4.16667 7.91666V11.641C4.16667 12.1458 3.82309 12.5859 3.33333 12.7083C2.84358 12.8308 2.5 13.2708 2.5 13.7756V14.0128C2.5 14.7881 3.12854 15.4167 3.90388 15.4167H16.0961C16.8715 15.4167 17.5 14.7881 17.5 14.0128V13.7756C17.5 13.2708 17.1564 12.8308 16.6667 12.7083C16.1769 12.5859 15.8333 12.1458 15.8333 11.641V7.91666C15.8333 4.695 13.2217 2.08333 10 2.08333Z" stroke="white" stroke-width="1.5"/>
<path d="M9.99992 18.3333C11.6107 18.3333 12.9166 17.2887 12.9166 16C12.9166 15.7986 12.8847 15.6031 12.8247 15.4167H7.17514C7.11516 15.6031 7.08325 15.7986 7.08325 16C7.08325 17.2887 8.38909 18.3333 9.99992 18.3333Z" stroke="white" stroke-width="1.5"/>
</svg>
